<?xml version="1.0" standalone="no"?>
<!DOCTYPE svg PUBLIC "-//W3C//DTD SVG 20010904//EN"
 "http://www.w3.org/TR/2001/REC-SVG-20010904/DTD/svg10.dtd">
<svg version="1.0" xmlns="http://www.w3.org/2000/svg"
 width="378.000000pt" height="378.000000pt" viewBox="0 0 378.000000 378.000000"
 preserveAspectRatio="xMidYMid meet">
<metadata>
Created by potrace 1.14, written by Peter Selinger 2001-2017
</metadata>
<g transform="translate(0.000000,378.000000) scale(0.100000,-0.100000)"
fill="#000000" stroke="none">
<path d="M2142 3173 c-101 -50 -117 -187 -30 -264 82 -74 228 -29 258 79 35
133 -105 246 -228 185z"/>
<path d="M1530 3031 c-68 -22 -141 -83 -173 -146 -41 -81 -50 -212 -22 -320
25 -98 92 -218 168 -301 38 -41 71 -73 73 -72 1 2 6 19 9 37 4 26 0 42 -19 70
-62 89 -100 226 -89 320 24 207 223 284 416 161 l46 -29 46 22 c25 12 45 25
45 28 0 4 -30 37 -67 73 -69 69 -140 116 -221 145 -50 19 -170 25 -212 12z"/>
<path d="M2060 2766 c-195 -56 -374 -255 -429 -474 -35 -140 -11 -288 58 -361
20 -20 29 -28 20 -17 -50 63 -67 137 -56 233 25 221 214 420 408 428 179 9
279 -144 231 -355 -34 -152 -132 -278 -268 -346 -60 -30 -82 -36 -140 -36 -62
-1 -66 -2 -34 -11 79 -21 222 14 315 77 130 89 241 247 280 401 15 58 21 187
11 233 -18 85 -86 176 -160 214 -51 26 -171 33 -236 14z"/>
<path d="M2104 2527 c39 -139 40 -222 1 -300 -15 -29 -33 -58 -42 -64 -10 -8
-12 -13 -5 -13 6 0 28 24 47 53 51 76 65 154 56 304 -1 14 -11 25 -32 32 -30
10 -31 10 -25 -12z"/>
<path d="M1685 2152 c-8 -21 -8 -22 40 -42 52 -22 167 -34 210 -22 24 7 17 9
-38 9 -57 1 -80 6 -138 35 -53 26 -70 31 -74 20z"/>
<path d="M1050 1680 c-98 -4 -131 -9 -152 -23 -31 -21 -28 -36 13 -66 36 -27
152 -40 274 -31 48 4 50 3 48 -21 -1 -28 -61 -132 -161 -281 -38 -57 -82 -125
-97 -153 -15 -27 -48 -81 -73 -118 l-45 -68 28 -29 c16 -17 25 -30 19 -30 -5
0 4 -7 21 -16 25 -13 39 -14 90 -3 60 11 127 14 240 9 78 -4 110 -2 102 7 -4
3 -2 12 5 20 21 25 18 62 -5 78 -33 21 -277 35 -330 19 -13 -4 -8 12 24 73 51
96 130 226 201 328 74 108 96 146 103 178 4 15 18 35 31 43 19 13 22 20 13 35
-28 52 -86 61 -349 49z"/>
<path d="M2100 1473 c-31 -11 -74 -61 -163 -187 l-90 -129 -24 29 c-13 16 -38
53 -55 83 -58 101 -142 171 -143 120 -1 -8 -7 -13 -14 -11 -17 4 14 -47 40
-66 10 -7 35 -40 55 -75 21 -34 51 -79 66 -99 l29 -38 -53 -75 c-29 -41 -63
-90 -76 -107 -12 -18 -29 -41 -37 -51 -8 -9 -15 -21 -15 -26 0 -5 -7 -14 -15
-21 -17 -14 -20 -40 -5 -40 5 0 27 22 47 49 36 46 151 202 164 224 8 12 48
-30 127 -133 76 -100 110 -132 133 -125 71 20 70 17 34 66 -14 19 -67 79 -118
133 -127 136 -123 129 -96 169 69 98 174 243 179 247 8 7 52 70 48 69 -2 0
-10 -3 -18 -6z"/>
<path d="M2628 1444 c-4 -3 -150 -11 -255 -13 -49 -1 -53 -3 -53 -26 0 -43 95
-78 178 -64 28 4 97 11 154 14 56 4 105 8 108 10 3 2 11 1 17 -3 7 -5 -16 -36
-60 -83 -40 -41 -117 -125 -173 -185 -208 -227 -199 -213 -177 -258 l15 -28
116 7 c157 9 267 10 326 4 39 -5 53 -2 68 13 17 17 17 20 3 42 -9 13 -28 26
-43 29 -32 7 -266 1 -302 -7 -14 -4 -49 -9 -79 -13 l-55 -6 102 114 c55 63
160 170 232 239 163 156 187 198 123 214 -25 7 -239 7 -245 0z"/>
<path d="M1030 581 c0 -47 4 -81 10 -81 6 0 13 0 18 0 4 0 7 14 7 32 0 28 3
32 30 34 42 2 54 -5 50 -27 -6 -28 4 -49 20 -43 20 8 15 159 -5 159 -9 0 -15
-9 -15 -25 1 -29 -19 -40 -55 -30 -18 5 -25 13 -25 31 0 15 -7 25 -17 27 -16
3 -18 -6 -18 -77z"/>
<path d="M1209 648 c-4 -60 -3 -126 2 -138 5 -11 21 -15 59 -14 28 1 54 4 57
7 13 13 -12 27 -48 27 -33 0 -40 3 -37 18 2 12 13 17 38 17 23 0 36 5 38 15 2
12 -6 16 -35 15 -28 0 -39 4 -41 17 -3 15 3 18 37 16 44 -1 57 4 46 21 -9 16
-115 14 -116 -1z"/>
<path d="M1349 658 c-5 -9 -8 -127 -4 -144 4 -18 11 -20 57 -17 70 4 85 27 20
31 l-47 3 2 64 c2 52 0 65 -12 65 -8 0 -16 -1 -16 -2z"/>
<path d="M1480 578 l0 -83 47 2 c27 1 54 2 61 2 6 1 12 8 12 16 0 11 -12 15
-45 15 l-45 0 0 65 c0 51 -3 65 -15 65 -12 0 -15 -16 -15 -82z"/>
<path d="M1634 642 c-30 -23 -38 -56 -24 -96 30 -91 171 -51 156 44 -10 62
-84 91 -132 52z m91 -36 c12 -17 13 -30 6 -49 -17 -43 -76 -42 -92 1 -13 33
12 72 46 72 15 0 31 -9 40 -24z"/>
<path d="M1890 646 c0 -28 48 -139 64 -148 17 -9 27 7 42 67 9 37 20 30 33
-19 18 -71 41 -65 73 19 32 83 34 98 12 93 -10 -2 -24 -25 -34 -58 -19 -57
-19 -57 -42 15 -18 56 -40 52 -58 -12 -8 -29 -17 -53 -21 -53 -3 0 -13 25 -23
55 -10 33 -23 55 -32 55 -7 0 -14 -6 -14 -14z"/>
<path d="M2166 639 c-31 -24 -36 -87 -9 -114 66 -67 168 -9 140 80 -16 55 -83
72 -131 34z m89 -25 c21 -21 16 -63 -10 -80 -30 -20 -69 2 -73 41 -6 48 48 73
83 39z"/>
<path d="M2329 643 c-1 -22 -1 -125 0 -135 2 -15 31 -8 32 7 3 35 6 40 19 37
8 -2 18 -10 23 -17 14 -25 38 -45 48 -40 5 4 1 17 -8 32 -13 20 -14 29 -5 44
31 49 2 89 -64 89 -35 0 -44 -4 -45 -17z m91 -33 c0 -10 -7 -21 -16 -24 -31
-12 -44 -6 -44 18 0 21 5 25 30 24 22 -1 30 -6 30 -18z"/>
<path d="M2477 653 c-3 -5 -4 -39 -3 -76 1 -73 8 -84 53 -81 15 1 38 3 50 3
16 1 21 6 17 16 -4 10 -20 15 -45 15 l-39 0 0 65 c0 50 -3 65 -14 65 -8 0 -17
-3 -19 -7z"/>
<path d="M2610 578 l0 -83 39 1 c59 3 78 12 91 45 27 65 -14 119 -92 119 l-38
0 0 -82z m89 38 c7 -8 11 -30 9 -48 -3 -29 -7 -33 -34 -36 l-31 -3 2 48 c1 26
3 49 4 51 5 8 41 0 50 -12z"/>
<path d="M960 565 c0 -8 2 -15 4 -15 2 0 6 7 10 15 3 8 1 15 -4 15 -6 0 -10
-7 -10 -15z"/>
<path d="M2805 571 c-3 -5 -1 -12 5 -16 5 -3 10 1 10 9 0 18 -6 21 -15 7z"/>
<path d="M1785 490 c-3 -5 0 -13 8 -16 23 -8 82 0 82 11 0 14 -82 19 -90 5z"/>
</g>
</svg>
